PathFileType	4	(X/Y/Z)	 s01c0403.trc
DataRate	CameraRate	NumFrames	NumMarkers	Units	OrigDataRate	OrigDataStartFrame	OrigNumFrames
200	200	4	47	mm	200	1751	2000
Frame#	Time	racr			lacr			c7			jug			rlel			rdr			llel			ldr			lic			ric			lasi			rasi			rpsi			lpsi			rgt			lgt			rth1			rth2			rth3			rth4			rlfc			rsh1			rsh2			rsh3			rsh4			rlmal			rmmal			rcal			rtoe			rmt5			lth1			lth2			lth4			lth3			llfc			lsh1			lsh2			lsh3			lsh4			llmal			lmmal			lcal			ltoe			lmt5			SBIKE			LBIKE			RBIKE			
		X1	Y1	Z1	X2	Y2	Z2	X3	Y3	Z3	X4	Y4	Z4	X5	Y5	Z5	X6	Y6	Z6	X7	Y7	Z7	X8	Y8	Z8	X9	Y9	Z9	X10	Y10	Z10	X11	Y11	Z11	X12	Y12	Z12	X13	Y13	Z13	X14	Y14	Z14	X15	Y15	Z15	X16	Y16	Z16	X17	Y17	Z17	X18	Y18	Z18	X19	Y19	Z19	X20	Y20	Z20	X21	Y21	Z21	X22	Y22	Z22	X23	Y23	Z23	X24	Y24	Z24	X25	Y25	Z25	X26	Y26	Z26	X27	Y27	Z27	X28	Y28	Z28	X29	Y29	Z29	X30	Y30	Z30	X31	Y31	Z31	X32	Y32	Z32	X33	Y33	Z33	X34	Y34	Z34	X35	Y35	Z35	X36	Y36	Z36	X37	Y37	Z37	X38	Y38	Z38	X39	Y39	Z39	X40	Y40	Z40	X41	Y41	Z41	X42	Y42	Z42	X43	Y43	Z43	X44	Y44	Z44	X45	Y45	Z45	X46	Y46	Z46	X47	Y47	Z47	
1751	8.7550	734.096867	1334.505886	-33.542942	772.540573	1264.731740	-404.192913	748.139985	1395.142915	-215.060217	721.756470	1223.926254	-217.337984	590.805181	1089.035825	73.033438	712.718662	893.651171	-23.524692	583.614739	1086.026264	-558.549884	699.273646	897.449550	-462.551571	392.611160	1192.975255	-418.044584	350.512765	1219.110553	-98.087337	404.911455	1152.829383	-430.654582	379.217787	1173.455530	-129.756737	235.047950	1261.446590	-217.836099	243.904620	1256.016515	-324.561273	304.272639	1126.174414	-64.115077	285.332491	1066.001830	-442.475567	399.820812	1045.510787	-45.499460	475.462073	1010.298679	-41.649960	554.258469	965.436664	-46.779759	502.172871	1057.333188	-60.411800	620.669738	883.539431	-65.499139	532.847435	818.274856	-42.674750	468.791808	762.498198	-50.001420	396.598167	712.363951	-66.149309	501.442060	726.453148	-84.436775	283.940356	641.811616	-95.113328	327.666798	626.499918	-170.236948	232.284011	649.931342	-152.577758	403.774192	439.557048	-135.137089	310.320199	496.287815	-67.782111	279.106075	947.168027	-453.243374	304.397256	860.952596	-454.463575	355.713368	874.252111	-455.767841	317.502388	778.001957	-439.222538	333.237580	653.136200	-424.241887	257.080104	576.274182	-455.245207	223.612402	496.707628	-448.288432	188.824931	419.171673	-435.618806	277.616347	476.702362	-425.910248	144.097292	301.046882	-419.415574	171.404193	298.189929	-343.881908	95.476987	301.819577	-381.460115	305.793243	121.729029	-373.798474	209.816866	161.482925	-444.783401	-225.514895	892.599054	-255.057498	-13.367677	84.551688	-458.052849	-23.179222	80.956929	-57.993493	
1752	8.7600	733.324791	1333.208456	-31.687851	772.468291	1264.856120	-402.034087	748.012800	1395.051933	-212.728964	721.365165	1224.017026	-215.958979	589.062988	1087.875942	73.881831	712.440917	893.857324	-23.630419	584.620193	1086.531238	-557.370185	699.727249	897.468197	-462.321161	393.302500	1193.923423	-417.281209	349.025218	1220.303824	-97.791210	405.429772	1153.887697	-430.131314	377.741096	1176.119406	-128.077329	234.602603	1262.472129	-218.166446	243.990988	1257.105150	-324.834386	303.709378	1126.741446	-64.620270	286.619941	1067.097615	-443.033534	398.939743	1046.018600	-46.271084	474.625706	1010.811746	-42.341370	553.536317	966.194385	-47.044706	501.352732	1058.145717	-59.950604	620.214148	886.234956	-65.606143	535.130694	819.883024	-43.147368	472.120095	762.664345	-50.026731	400.907494	711.272755	-66.520817	505.418517	727.287510	-84.763145	287.613144	638.161899	-95.107704	331.658780	624.001179	-170.036575	235.130598	644.051538	-152.029182	414.272654	440.259419	-134.831180	318.754956	493.305399	-67.277844	280.338487	948.511256	-453.145799	305.148941	862.109271	-454.131544	356.541518	875.288148	-456.529689	318.182974	779.232951	-438.497217	333.524966	654.065266	-423.974589	255.861413	578.849790	-454.717953	220.749239	500.026858	-447.692689	184.393819	423.232507	-434.924900	274.402216	478.940446	-425.351824	137.195993	306.072998	-419.034404	165.429259	301.942635	-343.701734	88.524296	307.345531	-380.729790	295.679435	123.648757	-374.136463	200.439996	165.407124	-444.633761	-225.530365	892.648430	-254.898393	-13.377849	84.636535	-457.998019	-23.195386	80.974012	-57.971377	
1753	8.7650	732.680319	1331.771936	-29.835729	772.343992	1264.881623	-400.009364	747.851248	1394.474022	-210.197629	720.979291	1224.126466	-214.625765	587.277532	1086.616835	74.648946	712.043005	894.173880	-23.735135	585.486994	1086.973278	-556.188311	700.165853	897.498853	-462.114975	393.619642	1195.529450	-416.720777	347.411142	1221.848724	-97.579565	406.042737	1155.415955	-429.847710	377.061366	1177.537551	-127.568631	234.065600	1263.737281	-218.416373	243.961492	1258.449640	-325.031417	303.103601	1127.336765	-65.194272	288.022060	1068.400668	-443.563199	398.141532	1046.328758	-46.975804	473.649781	1011.057699	-43.033385	552.570871	966.421172	-47.418447	500.634321	1058.541585	-59.906115	620.207426	888.136750	-66.760195	536.658180	820.267966	-44.139826	474.517122	761.948454	-50.422061	404.018627	709.650785	-67.001141	508.333970	726.967306	-85.006528	290.760528	633.578890	-94.893953	335.141438	620.702548	-169.841176	237.609603	637.078509	-151.441593	424.535969	440.598960	-134.480233	326.910394	489.559667	-66.633601	282.072896	949.849337	-452.897462	306.755180	863.317493	-453.440449	358.210473	876.543970	-456.489172	320.015912	780.622767	-437.403250	334.972160	655.242920	-423.376147	255.715051	581.640131	-453.940335	218.808965	503.728200	-446.855190	180.825293	427.683152	-434.084174	272.063887	481.416605	-424.454472	131.059799	311.540005	-418.353197	159.866085	306.343100	-343.381844	82.232536	313.631348	-379.864700	285.698898	125.734336	-374.290072	191.399522	169.968937	-444.382356	-225.541622	892.702793	-254.749431	-13.399723	84.711008	-457.973380	-23.201718	80.992617	-57.954418	
1754	8.7700	732.136101	1330.114819	-28.021936	772.185514	1264.977376	-398.062546	747.701148	1393.963605	-207.906173	720.600365	1224.255189	-213.341941	585.320821	1085.451421	75.416918	711.626331	894.357307	-23.827893	586.255963	1087.380360	-555.002363	700.548286	897.549283	-461.934866	393.712332	1197.588220	-416.399343	345.671898	1223.533235	-97.461920	406.456266	1157.234253	-429.633469	376.264518	1178.943304	-126.904016	233.692474	1264.619405	-218.753022	243.812445	1259.873531	-325.098245	302.397759	1127.816218	-65.806215	289.406207	1069.836114	-444.023413	397.336382	1046.495776	-47.719913	472.778401	1010.893719	-43.870496	551.458471	966.055219	-48.047008	499.972302	1058.479118	-60.160806	619.572101	888.981904	-67.627015	537.447329	819.495471	-45.479362	475.791286	760.426401	-51.178190	405.938408	707.327019	-67.296546	510.172871	725.348542	-85.243828	293.708012	627.837758	-94.493745	338.205581	616.494947	-169.680142	239.802943	629.344581	-150.628578	433.934687	440.355115	-133.990433	334.792250	485.174895	-65.997797	284.304319	950.944197	-452.485398	309.155957	864.535279	-452.472227	360.602175	878.098784	-455.767248	323.031160	782.021745	-436.080279	337.461558	656.686685	-422.460129	256.496005	584.804196	-453.024643	217.783336	507.732610	-445.835773	178.009970	432.628977	-433.123839	270.559927	484.142569	-423.363139	125.456505	317.952949	-417.881409	154.752330	311.399758	-342.912826	76.585528	320.782736	-378.910114	275.963679	128.381371	-374.349262	182.404738	175.044396	-444.352987	-225.528584	892.753552	-254.545425	-13.385489	84.786565	-457.921533	-23.197707	81.012353	-57.923960	
